<svg xmlns="http://www.w3.org/2000/svg" xml:space="preserve" width="256" height="256"><g style="stroke:none;stroke-width:0;stroke-dasharray:none;stroke-linecap:butt;stroke-linejoin:miter;stroke-miterlimit:10;fill:none;fill-rule:nonzero;opacity:1"><path d="M77.474 17.28 61.526 1.332A4.516 4.516 0 0 0 58.311 0H15.742a4.553 4.553 0 0 0-4.548 4.548v80.904A4.553 4.553 0 0 0 15.742 90h58.516a4.554 4.554 0 0 0 4.549-4.548V20.496a4.517 4.517 0 0 0-1.333-3.216zM61.073 5.121l12.611 12.612H62.35a1.278 1.278 0 0 1-1.276-1.277V5.121zM15.742 3h42.332v13.456a4.281 4.281 0 0 0 4.276 4.277h13.457v33.2H14.194V4.548A1.55 1.55 0 0 1 15.742 3zm58.516 84H15.742a1.55 1.55 0 0 1-1.548-1.548V56.934h61.613v28.519A1.55 1.55 0 0 1 74.258 87z" style="stroke:none;stroke-width:1;stroke-dasharray:none;stroke-linecap:butt;stroke-linejoin:miter;stroke-miterlimit:10;fill:#000;fill-rule:nonzero;opacity:1" transform="matrix(2.81 0 0 2.81 1.407 1.407)"/><path d="M46.58 62.719h-5.944a1.5 1.5 0 0 0-1.5 1.5V80.82a1.5 1.5 0 1 0 3 0v-5.247h4.444a4.343 4.343 0 0 0 4.338-4.339v-4.177a4.343 4.343 0 0 0-4.338-4.338zm1.338 8.514a1.34 1.34 0 0 1-1.338 1.339h-4.444v-6.854h4.444a1.34 1.34 0 0 1 1.338 1.338v4.177zM31.782 82.319H27.7a3.855 3.855 0 0 1-3.85-3.851v-2.526a1.5 1.5 0 1 1 3 0v2.526c0 .469.381.851.85.851h4.082a.852.852 0 0 0 .851-.851v-14.25a1.5 1.5 0 1 1 3 0v14.25a3.855 3.855 0 0 1-3.851 3.851zM62.555 82.351H56.73a3.599 3.599 0 0 1-3.595-3.595V66.305a3.602 3.602 0 0 1 3.579-3.595l5.482-.023h.007a1.5 1.5 0 0 1 .007 3l-5.482.023a.597.597 0 0 0-.593.595v12.451c0 .328.267.595.595.595h5.824a.597.597 0 0 0 .596-.595v-5.099a.597.597 0 0 0-.596-.595h-2.386a1.5 1.5 0 0 1 0-3h2.386a3.6 3.6 0 0 1 3.596 3.595v5.099a3.6 3.6 0 0 1-3.595 3.595z" style="stroke:none;stroke-width:1;stroke-dasharray:none;stroke-linecap:butt;stroke-linejoin:miter;stroke-miterlimit:10;fill:#000;fill-rule:nonzero;opacity:1" transform="matrix(2.81 0 0 2.81 1.407 1.407)"/></g></svg>