<svg xmlns="http://www.w3.org/2000/svg" xml:space="preserve" width="256" height="256"><g style="stroke:none;stroke-width:0;stroke-dasharray:none;stroke-linecap:butt;stroke-linejoin:miter;stroke-miterlimit:10;fill:none;fill-rule:nonzero;opacity:1"><path d="M77.474 17.28 61.526 1.332A4.516 4.516 0 0 0 58.311 0H15.742a4.553 4.553 0 0 0-4.548 4.548v80.904A4.553 4.553 0 0 0 15.742 90h58.516a4.554 4.554 0 0 0 4.549-4.548V20.496a4.517 4.517 0 0 0-1.333-3.216zM61.073 5.121l12.611 12.612H62.35a1.278 1.278 0 0 1-1.276-1.277V5.121zM15.742 3h42.332v13.456a4.281 4.281 0 0 0 4.276 4.277h13.457v33.2H14.194V4.548A1.55 1.55 0 0 1 15.742 3zm58.516 84H15.742a1.55 1.55 0 0 1-1.548-1.548V56.934h61.613v28.519A1.55 1.55 0 0 1 74.258 87z" style="stroke:none;stroke-width:1;stroke-dasharray:none;stroke-linecap:butt;stroke-linejoin:miter;stroke-miterlimit:10;fill:#000;fill-rule:nonzero;opacity:1" transform="matrix(2.81 0 0 2.81 1.407 1.407)"/><path d="M36.287 62.769a1.5 1.5 0 0 0-1.67.492l-4.922 6.269-4.923-6.27a1.5 1.5 0 0 0-2.68.927v16.664a1.5 1.5 0 1 0 3 0V68.526l3.422 4.359.019.02c.03.037.066.07.1.104.038.039.075.079.117.112.006.005.011.012.018.017.027.021.058.035.086.055.048.032.094.065.145.092.042.022.085.038.128.055.046.019.092.039.139.053.048.014.096.022.145.032.046.009.092.019.138.023.048.005.095.003.143.003.049 0 .098.001.147-.004.045-.004.088-.014.132-.022.051-.01.102-.018.152-.033.044-.013.085-.032.128-.049.047-.019.095-.037.14-.061.046-.024.088-.054.131-.083.032-.021.066-.037.097-.062l.02-.019c.037-.03.069-.066.104-.1.039-.038.079-.076.113-.117l.017-.017 3.422-4.358V80.85a1.5 1.5 0 1 0 3 0V64.187a1.496 1.496 0 0 0-1.008-1.418zM49.337 62.719h-5.945a1.5 1.5 0 0 0-1.5 1.5V80.82a1.5 1.5 0 1 0 3 0v-5.247h4.445a4.343 4.343 0 0 0 4.338-4.339v-4.177a4.343 4.343 0 0 0-4.338-4.338zm1.338 8.514a1.34 1.34 0 0 1-1.338 1.339h-4.445v-6.854h4.445a1.34 1.34 0 0 1 1.338 1.338v4.177zM63.961 82.351a1.5 1.5 0 0 1-1.5-1.5v-1.905h-6.068a1.5 1.5 0 0 1-1.303-2.243l7.568-13.259a1.501 1.501 0 0 1 2.803.743v11.759h.945a1.5 1.5 0 0 1 0 3h-.945v1.905a1.5 1.5 0 0 1-1.5 1.5zm-4.985-6.406h3.485V69.84l-3.485 6.105z" style="stroke:none;stroke-width:1;stroke-dasharray:none;stroke-linecap:butt;stroke-linejoin:miter;stroke-miterlimit:10;fill:#000;fill-rule:nonzero;opacity:1" transform="matrix(2.81 0 0 2.81 1.407 1.407)"/></g></svg>